<?xml version="1.0" encoding="UTF-8" standalone="no"?>
<svg
   xmlns:dc="http://purl.org/dc/elements/1.1/"
   xmlns:cc="http://creativecommons.org/ns#"
   xmlns:rdf="http://www.w3.org/1999/02/22-rdf-syntax-ns#"
   xmlns:svg="http://www.w3.org/2000/svg"
   xmlns="http://www.w3.org/2000/svg"
   xmlns:sodipodi="http://sodipodi.sourceforge.net/DTD/sodipodi-0.dtd"
   xmlns:inkscape="http://www.inkscape.org/namespaces/inkscape"
   width="107mm"
   height="128mm"
   viewBox="0 0 379.1339 453.54304"
   id="svg2"
   version="1.1"
   inkscape:version="1.0 (9f2f71dc58, 2020-08-02)"
   sodipodi:docname="goat-head.svg">
  <defs
     id="defs4" />
  <sodipodi:namedview
     id="base"
     pagecolor="#ffffff"
     bordercolor="#666666"
     borderopacity="1.0"
     inkscape:pageopacity="0.0"
     inkscape:pageshadow="2"
     inkscape:zoom="0.58207717"
     inkscape:cx="444.34947"
     inkscape:cy="281.77481"
     inkscape:document-units="px"
     inkscape:current-layer="layer1"
     showgrid="false"
     inkscape:window-width="840"
     inkscape:window-height="525"
     inkscape:window-x="514"
     inkscape:window-y="92"
     inkscape:window-maximized="0"
     inkscape:document-rotation="0" />
  <metadata
     id="metadata7">
    <rdf:RDF>
      <cc:Work
         rdf:about="">
        <dc:format>image/svg+xml</dc:format>
        <dc:type
           rdf:resource="http://purl.org/dc/dcmitype/StillImage" />
        <dc:title />
      </cc:Work>
    </rdf:RDF>
  </metadata>
  <g
     inkscape:label="Layer 1"
     inkscape:groupmode="layer"
     id="layer1">
    <path
       style="opacity:1;fill:#fafafa;fill-opacity:1;stroke:#7d7b7b;stroke-width:12;stroke-linecap:round;stroke-linejoin:round;stroke-miterlimit:4;stroke-dasharray:none;stroke-opacity:1"
       id="path5756"
       sodipodi:type="arc"
       sodipodi:cx="278.96768"
       sodipodi:cy="220.67197"
       sodipodi:rx="86.338806"
       sodipodi:ry="114.14235"
       sodipodi:start="0"
       sodipodi:end="6.2417545"
       sodipodi:open="true"
       d="M 365.30649,220.67197 A 86.338806,114.14235 0 0 1 279.86194,334.80819 86.338806,114.14235 0 0 1 192.6474,223.0363 86.338806,114.14235 0 0 1 276.2853,106.58472 86.338806,114.14235 0 0 1 365.2324,215.94431"
       sodipodi:arc-type="arc" />
    <path
       style="fill:#fafafa;fill-opacity:1;fill-rule:evenodd;stroke:#7d7b7b;stroke-width:12;stroke-linecap:round;stroke-linejoin:round;stroke-miterlimit:4;stroke-dasharray:none;stroke-opacity:1"
       d="m 264.86145,10.115525 c 0,0 -42.68485,33.178247 -53.40816,83.049929 -7.97017,54.411286 28.15434,101.807966 28.15434,101.807966 l -61.6193,-57.57869 c 0,0 -2.0203,-40.020308 19.1929,-68.304553 18.28666,-35.994723 67.68022,-58.974652 67.68022,-58.974652 z"
       id="path4178-7"
       inkscape:connector-curvature="0"
       sodipodi:nodetypes="cccccc" />
    <path
       style="fill:#fafafa;fill-opacity:1;fill-rule:evenodd;stroke:#7d7b7b;stroke-width:12;stroke-linecap:round;stroke-linejoin:round;stroke-miterlimit:4;stroke-dasharray:none;stroke-opacity:1"
       d="m 59.858892,15.067839 c 0,0 42.684828,33.178248 53.408138,83.049933 C 121.2372,152.52906 85.112698,199.92574 85.112698,199.92574 l 61.619292,-57.57869 c 0,0 2.0203,-40.02031 -19.1929,-68.304556 C 109.25243,38.047769 59.858892,15.067839 59.858892,15.067839 Z"
       id="path4178-7-3"
       inkscape:connector-curvature="0"
       sodipodi:nodetypes="cccccc" />
    <path
       style="fill:#fafafa;fill-opacity:1;fill-rule:evenodd;stroke:#7d7b7b;stroke-width:12;stroke-linecap:round;stroke-linejoin:round;stroke-miterlimit:4;stroke-dasharray:none;stroke-opacity:1"
       d="m 238.76785,177.89792 c 0.71429,2.85715 -7.02935,45.14351 7.14286,42.14286 l 25,-30 15.90019,-17.01599 24.8141,-26.55544 c -38.57143,4.28572 -72.85715,31.42857 -72.85715,31.42857 z"
       id="path5711"
       inkscape:connector-curvature="0"
       sodipodi:nodetypes="cccccc" />
    <path
       style="fill:#fafafa;fill-opacity:1;fill-rule:evenodd;stroke:#7d7b7b;stroke-width:12;stroke-linecap:round;stroke-linejoin:round;stroke-miterlimit:4;stroke-dasharray:none;stroke-opacity:1"
       d="m 87.170837,170.62763 c -0.714289,2.85715 7.029347,45.14351 -7.142856,42.14286 l -24.999987,-30 L 39.127813,165.7545 14.313726,139.19906 c 38.57141,4.28572 72.857111,31.42857 72.857111,31.42857 z"
       id="path5711-5"
       inkscape:connector-curvature="0"
       sodipodi:nodetypes="cccccc" />
    <path
       style="opacity:1;fill:#fafafa;fill-opacity:1;stroke:#7d7b7b;stroke-width:12;stroke-miterlimit:4;stroke-dasharray:none;stroke-opacity:1"
       d="m 242.5902,224.15501 c -7.63561,28.68472 -20.06203,40.46604 -31.02451,59.02617 -10.9406,18.52308 -25.56744,38.91526 -45.59195,44.53738 -1.9749,0.55447 -0.42069,0.13533 -2.46973,0.13533 -29.59817,0 -29.08448,-6.69475 -50.72904,-42.67312 C 99.549551,263.197 88.762546,259.06987 80.485951,227.40753 65.639439,170.61175 108.81285,143.92052 154.4634,143.92052 c 45.65054,0 102.1205,27.66432 88.1268,80.23449 z"
       id="path4136"
       inkscape:connector-curvature="0"
       sodipodi:nodetypes="ssssssss" />
    <path
       style="fill:#fafafa;fill-opacity:1;fill-rule:evenodd;stroke:#7d7b7b;stroke-width:12;stroke-linecap:butt;stroke-linejoin:miter;stroke-miterlimit:4;stroke-dasharray:none;stroke-opacity:1"
       d="m 127.94488,343.0029 c 0,5.05076 13.13199,67.68022 13.13199,67.68022 0,0 16.16244,-29.29443 14.14213,-25.25382 -2.0203,4.04061 5.05076,58.58885 5.05076,58.58885 0,0 12.12183,-89.90357 10.10153,-84.85281 -2.02031,5.05076 11.11168,64.64976 11.11168,60.60915 0,-4.04061 11.11167,-71.72083 11.11167,-71.72083 l -37.37564,6.06092 z"
       id="path4157"
       inkscape:connector-curvature="0"
       sodipodi:nodetypes="ccscssccc" />
    <ellipse
       style="opacity:1;fill:#fafafa;fill-opacity:1;stroke:#7d7b7b;stroke-width:12;stroke-miterlimit:4;stroke-dasharray:none;stroke-opacity:1"
       id="path4138"
       ry="53.06361"
       rx="39.18145"
       cy="308.4166"
       cx="160.43219" />
    <ellipse
       style="opacity:1;fill:#fafafa;fill-opacity:1;stroke:#7d7b7b;stroke-width:12;stroke-miterlimit:4;stroke-dasharray:none;stroke-opacity:1"
       id="path4159-6"
       cx="216.15808"
       cy="206.92816"
       rx="16.162441"
       ry="13.305299" />
    <rect
       style="opacity:1;fill:#fafafa;fill-opacity:1;stroke:#7d7b7b;stroke-width:7.70287;stroke-linejoin:round;stroke-miterlimit:4;stroke-dasharray:none;stroke-opacity:1"
       id="rect4176"
       width="56.162628"
       height="10.194516"
       x="132.35162"
       y="314.41254"
       ry="1.375638" />
    <ellipse
       style="opacity:1;fill:#fafafa;fill-opacity:1;stroke:#7d7b7b;stroke-width:12;stroke-miterlimit:4;stroke-dasharray:none;stroke-opacity:1"
       id="path4159-6-5"
       cx="107.4003"
       cy="203.19429"
       rx="16.162441"
       ry="13.305299" />
    <path
       style="fill:#fafafa;fill-opacity:1;fill-rule:evenodd;stroke:#7d7b7b;stroke-width:12;stroke-linecap:round;stroke-linejoin:round;stroke-miterlimit:4;stroke-dasharray:none;stroke-opacity:1"
       d="m 139.68343,275.6655 c 2.09662,0 39.31167,1.43188 39.31167,1.43188 0,0 -19.91792,28.16032 -22.53869,27.20572 -2.62078,-0.95457 -16.77298,-28.6376 -16.77298,-28.6376 z"
       id="path4264"
       inkscape:connector-curvature="0" />
  </g>
</svg>
